HIERARCHY
ROOT joint_Root
{
	OFFSET 0.0 0.0 0.0
	CHANNELS 6 Xposition Yposition Zposition Zrotation Xrotation Yrotation 
	JOINT Hips
	{
		OFFSET 4.5925 91.4895 -427.239
		CHANNELS 6 Xposition Yposition Zposition Zrotation Xrotation Yrotation 
		JOINT Spine
		{
			OFFSET 15.7357 0.0 0.0
			CHANNELS 6 Xposition Yposition Zposition Zrotation Xrotation Yrotation 
			JOINT Chest
			{
				OFFSET 8.98455 -0.406207 0.0
				CHANNELS 6 Xposition Yposition Zposition Zrotation Xrotation Yrotation 
				JOINT Neck
				{
					OFFSET 16.3773 0.0 0.0
					CHANNELS 6 Xposition Yposition Zposition Zrotation Xrotation Yrotation 
					JOINT Head
					{
						OFFSET 6.45672 0.0 0.0
						CHANNELS 6 Xposition Yposition Zposition Zrotation Xrotation Yrotation 
						End Site
						{
							OFFSET 0.0 0.0 0.0
						}
					}
				}
				JOINT Shoulder_L
				{
					OFFSET 12.9942 -0.242716 4.98039
					CHANNELS 6 Xposition Yposition Zposition Zrotation Xrotation Yrotation 
					JOINT UpperArm_L
					{
						OFFSET 5.34809 0.0 0.0
						CHANNELS 6 Xposition Yposition Zposition Zrotation Xrotation Yrotation 
						JOINT LowerArm_L
						{
							OFFSET 24.3286 1.87007e-05 0.0
							CHANNELS 6 Xposition Yposition Zposition Zrotation Xrotation Yrotation 
							JOINT Hand_L
							{
								OFFSET 22.2916 0.0 0.0
								CHANNELS 6 Xposition Yposition Zposition Zrotation Xrotation Yrotation 
								End Site
								{
									OFFSET 0.0 0.0 0.0
								}
							}
						}
					}
				}
				JOINT Shoulder_R
				{
					OFFSET 12.9945 -0.242716 -4.98039
					CHANNELS 6 Xposition Yposition Zposition Zrotation Xrotation Yrotation 
					JOINT UpperArm_R
					{
						OFFSET -5.34813 0.0 0.0
						CHANNELS 6 Xposition Yposition Zposition Zrotation Xrotation Yrotation 
						JOINT LowerArm_R
						{
							OFFSET -24.3289 0.000322201 0.0
							CHANNELS 6 Xposition Yposition Zposition Zrotation Xrotation Yrotation 
							JOINT Hand_R
							{
								OFFSET -22.2915 -0.000108084 0.0
								CHANNELS 6 Xposition Yposition Zposition Zrotation Xrotation Yrotation 
								End Site
								{
									OFFSET 0.0 0.0 0.0
								}
							}
						}
					}
				}
			}
		}
		JOINT UpperLeg_L
		{
			OFFSET -2.19248 -6.46944 0.0
			CHANNELS 6 Xposition Yposition Zposition Zrotation Xrotation Yrotation 
			JOINT LowerLeg_L
			{
				OFFSET 39.0811 0.0 -1.23785e-05
				CHANNELS 6 Xposition Yposition Zposition Zrotation Xrotation Yrotation 
				JOINT Foot_L
				{
					OFFSET 40.9854 0.0 -1.26872e-05
					CHANNELS 6 Xposition Yposition Zposition Zrotation Xrotation Yrotation 
					JOINT Toes_L
					{
						OFFSET 11.7543 0.0 0.0
						CHANNELS 6 Xposition Yposition Zposition Zrotation Xrotation Yrotation 
						End Site
						{
							OFFSET 0.0 0.0 0.0
						}
					}
				}
			}
		}
		JOINT UpperLeg_R
		{
			OFFSET -2.19251 6.46944 0.0
			CHANNELS 6 Xposition Yposition Zposition Zrotation Xrotation Yrotation 
			JOINT LowerLeg_R
			{
				OFFSET -39.0811 -0.00228153 -0.0401928
				CHANNELS 6 Xposition Yposition Zposition Zrotation Xrotation Yrotation 
				JOINT Foot_R
				{
					OFFSET -40.9854 0.0 0.0
					CHANNELS 6 Xposition Yposition Zposition Zrotation Xrotation Yrotation 
					JOINT Toes_R
					{
						OFFSET -11.7543 0.0 0.0
						CHANNELS 6 Xposition Yposition Zposition Zrotation Xrotation Yrotation 
						End Site
						{
							OFFSET 0.0 0.0 0.0
						}
					}
				}
			}
		}
	}
}
MOTION
Frames:	4
Frame Time:	0.0333333
0.000000 0.000000 0.000000 0.000000 0.000000 -0.000000 -2.495760 81.095800 -3.402940 87.131200 -5.623490 10.669200 15.735700 0.000005 -0.000001 84.782500 80.048000 -83.262300 8.984550 -0.406207 -0.000000 12.084600 -1.736870 3.223600 16.377300 -0.000001 -0.000001 -1.547620 0.824276 1.568410 6.456720 -0.000001 -0.000000 -6.385090 5.186500 -1.627070 12.994200 -0.242716 4.980390 -91.334800 4.603850 -73.813200 5.348090 -0.000007 -0.000001 -59.555300 36.191900 -15.635200 24.328600 0.000019 0.000005 9.172640 17.553700 -28.167700 22.291600 -0.000001 0.000005 15.481100 5.279990 0.638267 12.994500 -0.242716 -4.980390 87.696000 12.640300 -79.581800 -5.348130 -0.000001 -0.000004 -64.251900 10.962600 -15.822400 -24.328900 0.000322 -0.000009 -6.542520 -21.258600 -17.550800 -22.291500 -0.000108 -0.000004 12.617100 5.229950 2.032560 -2.192480 -6.469440 -0.000000 -170.990000 -10.501000 -19.259300 39.081100 -0.000007 -0.000012 -0.610579 0.270561 66.102100 40.985400 -0.000006 -0.000013 -1.488230 2.554530 -85.405200 11.754300 -0.000000 0.000003 -0.000384 -0.003197 -16.695600 -2.192510 6.469440 -0.000001 -177.892000 10.496300 160.991000 -39.081100 -0.002282 -0.040193 0.088320 -0.039725 64.990800 -40.985400 0.000008 0.000006 7.877250 0.413774 -85.619000 -11.754300 -0.000006 -0.000006 -0.240597 -0.292585 -16.538200
0.000000 0.000000 0.000000 0.000000 0.000000 -0.000000 -3.167600 82.850500 -2.579820 87.071900 -3.268530 10.232800 15.735700 0.000005 -0.000001 82.836500 81.057400 -82.234400 8.984550 -0.406207 -0.000000 9.997000 -2.204580 1.396250 16.377300 -0.000001 -0.000001 -0.715147 0.738494 0.562109 6.456720 -0.000001 -0.000000 -4.714210 4.659020 -1.759960 12.994200 -0.242716 4.980390 -91.459300 4.835110 -73.182600 5.348090 -0.000007 -0.000001 -60.035600 34.165000 -14.413100 24.328600 0.000019 0.000005 8.374690 18.010600 -25.457800 22.291600 -0.000001 0.000005 14.875000 5.186710 3.049310 12.994500 -0.242716 -4.980390 87.473000 12.072000 -78.083200 -5.348130 -0.000001 -0.000004 -62.475200 1.304610 -15.053900 -24.328900 0.000322 -0.000009 -3.651900 -18.751200 -11.221900 -22.291500 -0.000108 -0.000004 5.009810 4.980350 7.833410 -2.192480 -6.469440 -0.000000 -170.968000 -8.378240 -17.114700 39.081100 -0.000007 -0.000012 -0.574425 0.316012 61.184500 40.985400 -0.000006 -0.000013 -1.901080 2.942450 -83.336500 11.754300 -0.000000 0.000003 -0.000323 -0.002770 -16.680500 -2.192510 6.469440 -0.000001 -177.864000 12.625100 163.872000 -39.081100 -0.002282 -0.040193 0.088037 -0.048989 59.995500 -40.985400 0.000008 0.000006 7.924460 0.482975 -83.858200 -11.754300 -0.000006 -0.000006 -0.233688 -0.286861 -16.756900
0.000000 0.000000 0.000000 0.000000 0.000000 -0.000000 -3.782720 85.287300 -1.640170 87.068100 -0.739084 9.478370 15.735700 0.000005 -0.000001 79.382200 82.374300 -79.882900 8.984550 -0.406207 -0.000000 7.218620 -2.797620 -0.824013 16.377300 -0.000001 -0.000001 1.022240 0.586596 -0.541135 6.456720 -0.000001 -0.000000 -2.651010 3.953510 -1.360040 12.994200 -0.242716 4.980390 -91.278900 4.007150 -72.280600 5.348090 -0.000007 -0.000001 -61.328900 32.741700 -12.466400 24.328600 0.000019 0.000005 6.841210 16.974300 -22.338400 22.291600 -0.000001 0.000005 14.262200 5.205570 2.570570 12.994500 -0.242716 -4.980390 87.627100 10.255300 -76.895100 -5.348130 -0.000001 -0.000004 -58.883100 -13.660600 -16.003600 -24.328900 0.000322 -0.000009 -1.874410 -16.790300 -6.459920 -22.291500 -0.000108 -0.000004 2.758570 4.774990 11.769600 -2.192480 -6.469440 -0.000000 -171.103000 -6.300010 -14.028400 39.081100 -0.000007 -0.000012 -0.490551 0.359911 53.734100 40.985400 -0.000006 -0.000013 -2.292320 3.313510 -80.036000 11.754300 -0.000000 0.000003 -0.000280 -0.002457 -16.669300 -2.192510 6.469440 -0.000001 -177.868000 14.654700 167.649000 -39.081100 -0.002282 -0.040193 0.079302 -0.058360 52.503100 -40.985400 0.000008 0.000006 7.727510 0.727502 -80.618200 -11.754300 -0.000006 -0.000006 -0.299542 -0.370947 -17.136200
0.000000 0.000000 0.000000 0.000000 0.000000 -0.000000 -4.196600 87.586600 -0.737167 87.482500 1.259780 8.648460 15.735700 0.000005 -0.000001 74.476900 83.615700 -76.239500 8.984550 -0.406207 -0.000000 4.493720 -3.360970 -3.389820 16.377300 -0.000001 -0.000001 2.937980 0.506717 -1.066190 6.456720 -0.000001 -0.000000 -0.941770 3.535270 -0.702922 12.994200 -0.242716 4.980390 -90.971600 2.881280 -71.353400 5.348090 -0.000007 -0.000001 -62.122500 31.376100 -10.716800 24.328600 0.000019 0.000005 6.227400 17.949500 -19.499700 22.291600 -0.000001 0.000005 12.596900 5.252290 1.369570 12.994500 -0.242716 -4.980390 88.061300 7.849920 -76.079500 -5.348130 -0.000001 -0.000004 -54.428500 -29.409900 -20.719200 -24.328900 0.000322 -0.000009 -1.655150 -21.102800 -4.585950 -22.291500 -0.000108 -0.000004 9.626310 4.761860 12.061700 -2.192480 -6.469440 -0.000000 -171.621000 -5.094510 -10.518400 39.081100 -0.000007 -0.000012 -0.379087 0.372051 45.537500 40.985400 -0.000006 -0.000013 -2.500770 3.807960 -76.391500 11.754300 -0.000000 0.000003 -0.000190 -0.001776 -16.644600 -2.192510 6.469440 -0.000001 -178.282000 16.138100 171.425000 -39.081100 -0.002282 -0.040193 0.065621 -0.063127 44.648200 -40.985400 0.000008 0.000006 7.423630 1.112740 -76.920200 -11.754300 -0.000006 -0.000006 -0.405600 -0.501821 -17.619700
